# xmcd
#
# Track frame offsets:
#	150
#	17679
#	41369
#	59575
#	77638
#	99521
#	114719
#	136703
#	161129
#	176620
#	207989
#	225463
#	239703
#	288630
#
# Disc length: 4302 seconds
#
# Revision: 1
# Processed by: cddbd v1.5.2PL0 Copyright (c) Steve Scherf et al.
# Submitted via: audiograbber 1.83.01
#
DISCID=c110cc0e
DTITLE=NRPS - 72-12-31 Winterland Arena, San Francisco CA
DYEAR=1900
DGENRE=
TTITLE0=I Don't Know You
TTITLE1=Lochinvar
TTITLE2=Hello Mary Lou
TTITLE3=Henry
TTITLE4=California Day
TTITLE5=She's No Angel
TTITLE6=Superman
TTITLE7=Whiskey
TTITLE8=Groupie
TTITLE9=Portland Woman
TTITLE10=Rainbow
TTITLE11=Truck Driving Man
TTITLE12=All I Ever Wanted
TTITLE13=I Don't Need No Doctor
EXTD=
EXTT0=
EXTT1=
EXTT2=
EXTT3=
EXTT4=
EXTT5=
EXTT6=
EXTT7=
EXTT8=
EXTT9=
EXTT10=
EXTT11=
EXTT12=
EXTT13=
PLAYORDER=
